<svg xmlns="http://www.w3.org/2000/svg" viewBox="0 0 36.05 40"><defs><style>.cls-1{fill:#8b8b8b;}</style></defs><g id="레이어_2" data-name="레이어 2"><g id="레이어_1-2" data-name="레이어 1"><path class="cls-1" d="M30.35,40a5.72,5.72,0,0,1-5.7-5.7,5.6,5.6,0,0,1,.08-.83A4,4,0,0,1,25,32.6L9.8,23.8A5.69,5.69,0,0,1,8,25.17a5.16,5.16,0,0,1-2.25.53,5.45,5.45,0,0,1-4-1.68,5.69,5.69,0,0,1,0-8.07,5.5,5.5,0,0,1,4-1.65,5.52,5.52,0,0,1,2.2.45,6,6,0,0,1,1.9,1.3L25,7.35a3,3,0,0,1-.22-.8,5.18,5.18,0,0,1-.08-.85,5.46,5.46,0,0,1,1.68-4.05,5.76,5.76,0,0,1,8.07,0A5.51,5.51,0,0,1,36.05,5.7a5.54,5.54,0,0,1-1.65,4,5.49,5.49,0,0,1-4,1.67A6.74,6.74,0,0,1,28.12,11,4.25,4.25,0,0,1,26.3,9.8L11.15,18.2c.07.27.12.57.18.92a6.49,6.49,0,0,1,.07.88,4.11,4.11,0,0,1-.07.75c-.06.27-.11.53-.18.8l15.15,8.6a5.78,5.78,0,0,1,4.05-1.55,5.71,5.71,0,0,1,4,9.73A5.49,5.49,0,0,1,30.35,40Zm0-31.6a2.65,2.65,0,0,0,2.7-2.7,2.7,2.7,0,1,0-5.4,0,2.65,2.65,0,0,0,2.7,2.7ZM5.7,22.7a2.72,2.72,0,0,0,1.92-4.62A2.58,2.58,0,0,0,5.7,17.3a2.7,2.7,0,1,0,0,5.4ZM30.35,37a2.65,2.65,0,1,0-1.93-.78A2.62,2.62,0,0,0,30.35,37Z"/></g></g></svg>