<svg xmlns="http://www.w3.org/2000/svg" viewBox="0 0 383.79 383.52"><defs><style>.cls-1{fill:#fff;}</style></defs><g id="레이어_2" data-name="레이어 2"><g id="레이어_1-2" data-name="레이어 1"><path class="cls-1" d="M0,22.72,22.5,0q84.78,84.78,168.87,168.84L360,.27,383,23.34,214.7,191.63l169.09,169c-6.9,6.88-13.35,13.29-19.75,19.73a33.61,33.61,0,0,0-2.41,3.12h-1.5c-.77-.94-1.48-2-2.34-2.82Q276.16,299.05,194.5,217.43c-.86-.86-1.79-1.66-2.82-2.62-1,1-2,1.77-2.82,2.63Q107.2,299.07,25.56,380.71c-.86.86-1.57,1.87-2.35,2.81h-.75L0,361.07v-.75c.94-.78,2-1.48,2.82-2.34Q84.5,276.37,166.13,194.71c.86-.86,1.67-1.78,2.63-2.81-1-1-1.77-2-2.63-2.83Q84.49,107.44,2.82,25.81C2,25,.94,24.25,0,23.47Z"/></g></g></svg>